<?xml version="1.0" encoding="UTF-8"?>
<svg width="512" height="512" viewBox="0 0 512 512" fill="none" xmlns="http://www.w3.org/2000/svg">
  <!-- Background -->
  <rect width="512" height="512" rx="80" fill="#0d6efd"/>
  
  <!-- Main Box -->
  <rect x="96" y="120" width="320" height="240" rx="24" fill="white" stroke="#e9ecef" stroke-width="4"/>
  
  <!-- Box Lines -->
  <line x1="96" y1="200" x2="416" y2="200" stroke="#e9ecef" stroke-width="2"/>
  <line x1="256" y1="120" x2="256" y2="360" stroke="#e9ecef" stroke-width="2"/>
  
  <!-- QR Code Icon -->
  <rect x="136" y="160" width="80" height="80" rx="8" fill="#0d6efd"/>
  <rect x="144" y="168" width="16" height="16" fill="white"/>
  <rect x="168" y="168" width="16" height="16" fill="white"/>
  <rect x="192" y="168" width="16" height="16" fill="white"/>
  <rect x="144" y="192" width="16" height="16" fill="white"/>
  <rect x="192" y="192" width="16" height="16" fill="white"/>
  <rect x="144" y="216" width="16" height="16" fill="white"/>
  <rect x="168" y="216" width="16" height="16" fill="white"/>
  <rect x="192" y="216" width="16" height="16" fill="white"/>
  
  <!-- Inventory Items -->
  <circle cx="320" cy="180" r="12" fill="#198754"/>
  <circle cx="360" cy="180" r="12" fill="#ffc107"/>
  <circle cx="320" cy="220" r="12" fill="#dc3545"/>
  <circle cx="360" cy="220" r="12" fill="#0dcaf0"/>
  
  <!-- App Title -->
  <text x="256" y="420" text-anchor="middle" fill="white" font-family="Arial, sans-serif" font-size="36" font-weight="bold">EstoqueApp</text>
  
  <!-- Subtitle -->
  <text x="256" y="450" text-anchor="middle" fill="#ffffff80" font-family="Arial, sans-serif" font-size="18">Gestão de Estoque</text>
</svg>
